#define spkr_mm_width 20
#define spkr_mm_height 14
static char spkr_mm_bits[] = {
  0x00, 0x00, 0x00, 0x00, 0x00, 0x00, 0x00, 0x08, 0x00, 0x00, 0x0C, 0x00, 
  0x00, 0x4F, 0x02, 0x00, 0x8F, 0x01, 0x00, 0x8F, 0x01, 0x00, 0x4F, 0x02, 
  0x00, 0x0C, 0x00, 0x00, 0x08, 0x00, 0x00, 0x00, 0x00, 0x00, 0x00, 0x00, 
  0x00, 0x00, 0x00, 0x00, 0x00, 0x00, };
