#define spkr_03_width 20
#define spkr_03_height 14
static char spkr_03_bits[] = {
  0x00, 0x00, 0x00, 0x00, 0x80, 0x00, 0x00, 0x08, 0x01, 0x00, 0x4C, 0x02, 
  0x00, 0x8F, 0x02, 0x00, 0xAF, 0x02, 0x00, 0xAF, 0x02, 0x00, 0x8F, 0x02, 
  0x00, 0x4C, 0x02, 0x00, 0x08, 0x01, 0x00, 0x80, 0x00, 0x00, 0x00, 0x00, 
  0x00, 0x00, 0x00, 0x00, 0x00, 0x00, };
