#define stop_width 20
#define stop_height 14
static char stop_bits[] = {
  0x00, 0x00, 0x00, 0x00, 0x00, 0x00, 0x00, 0x00, 0x00, 0x00, 0x3C, 0x00, 
  0x00, 0x46, 0x00, 0x00, 0x4A, 0x00, 0x00, 0x52, 0x00, 0x00, 0x62, 0x00, 
  0x00, 0x3C, 0x00, 0x00, 0x00, 0x00, 0x00, 0x00, 0x00, 0x00, 0x00, 0x00, 
  0x00, 0x00, 0x00, 0x00, 0x00, 0x00, };
