#define wifi_03_s03_width 20
#define wifi_03_s03_height 14
static char wifi_03_s03_bits[] = {
  0x00, 0x00, 0x00, 0x40, 0x80, 0x00, 0x20, 0x21, 0x01, 0x90, 0x40, 0x02, 
  0x50, 0x92, 0x02, 0x50, 0xAD, 0x02, 0x50, 0xAD, 0x02, 0x50, 0x92, 0x02, 
  0x90, 0x40, 0x02, 0x20, 0x21, 0x01, 0x40, 0x80, 0x00, 0x00, 0x00, 0x00, 
  0x00, 0x00, 0x00, 0x00, 0x00, 0x00, };
