#define wifi_no_width 20
#define wifi_no_height 14
static char wifi_no_bits[] = {
  0x00, 0x00, 0x00, 0x00, 0x00, 0x00, 0x00, 0x00, 0x00, 0x00, 0x00, 0x00, 
  0x00, 0x48, 0x00, 0x00, 0x31, 0x00, 0x00, 0x31, 0x00, 0x00, 0x48, 0x00, 
  0x00, 0x00, 0x00, 0x00, 0x00, 0x00, 0x00, 0x00, 0x00, 0x00, 0x00, 0x00, 
  0x00, 0x00, 0x00, 0x00, 0x00, 0x00, };
