#define wifi_02_s02_width 20
#define wifi_02_s02_height 14
static char wifi_02_s02_bits[] = {
  0x00, 0x00, 0x00, 0x00, 0x00, 0x00, 0x00, 0x00, 0x00, 0x00, 0x10, 0x00, 
  0x00, 0x24, 0x00, 0x00, 0x29, 0x00, 0x00, 0x29, 0x00, 0x00, 0x24, 0x00, 
  0x00, 0x10, 0x00, 0x00, 0x00, 0x00, 0x00, 0x00, 0x00, 0x00, 0x00, 0x00, 
  0x00, 0x00, 0x00, 0x00, 0x00, 0x00, };
