#define wifi_03_s02_width 20
#define wifi_03_s02_height 14
static char wifi_03_s02_bits[] = {
  0x00, 0x00, 0x00, 0x00, 0x00, 0x00, 0x00, 0x00, 0x00, 0x80, 0x40, 0x00, 
  0x40, 0x92, 0x00, 0x40, 0xAD, 0x00, 0x40, 0xAD, 0x00, 0x40, 0x92, 0x00, 
  0x80, 0x40, 0x00, 0x00, 0x00, 0x00, 0x00, 0x00, 0x00, 0x00, 0x00, 0x00, 
  0x00, 0x00, 0x00, 0x00, 0x00, 0x00, };
