#define wifi_02_s04_width 20
#define wifi_02_s04_height 14
static char wifi_02_s04_bits[] = {
  0x00, 0x00, 0x00, 0x00, 0x00, 0x01, 0x00, 0x40, 0x02, 0x00, 0x90, 0x02, 
  0x00, 0xA4, 0x02, 0x00, 0xA9, 0x02, 0x00, 0xA9, 0x02, 0x00, 0xA4, 0x02, 
  0x00, 0x90, 0x02, 0x00, 0x40, 0x02, 0x00, 0x00, 0x01, 0x00, 0x00, 0x00, 
  0x00, 0x00, 0x00, 0x00, 0x00, 0x00, };
